<svg width="40" height="40" viewBox="0 0 40 40" fill="none" xmlns="http://www.w3.org/2000/svg">
  <defs>
    <linearGradient id="logo-gradient" x1="0" y1="0" x2="40" y2="40" gradientUnits="userSpaceOnUse">
      <stop offset="0%" stop-color="#AC6AFF" />
      <stop offset="100%" stop-color="#FFC876" />
    </linearGradient>
  </defs>
  <path
    d="M26.5 6C20 6 16 10 16 14C16 18 20 20 23.5 21C27 22 29 23.5 29 26C29 28.5 26.5 30 23 30C19.5 30 16.5 28.5 15 27L12 30C14.5 32.5 19 34 23 34C30 34 33.5 29.5 33.5 26C33.5 21.5 30 19 25.5 18C22 17 20.5 16 20.5 14C20.5 12.5 22 11 25.5 11C28 11 30 12 31.5 13.5L34 10C31.5 7.5 29 6 26.5 6Z"
    fill="url(#logo-gradient)"
    stroke="white"
    stroke-width="1.5"
    stroke-linejoin="round"
  />
  <circle cx="20" cy="20" r="3" fill="white" />
</svg>
